HIERARCHY
ROOT Hips
{
	OFFSET -345.600250 -557.180420 88.924065
	CHANNELS 6 Xposition Yposition Zposition Zrotation Yrotation Xrotation
	JOINT Spine
	{
		OFFSET 0.000000 2.080078 8.814240
		CHANNELS 6 Xposition Yposition Zposition Zrotation Yrotation Xrotation
		JOINT Spine1
		{
			OFFSET 0.000000 0.000000 8.844139
			CHANNELS 6 Xposition Yposition Zposition Zrotation Yrotation Xrotation
			JOINT Spine2
			{
				OFFSET 0.000000 0.000000 11.682266
				CHANNELS 6 Xposition Yposition Zposition Zrotation Yrotation Xrotation
				JOINT Spine3
				{
					OFFSET 0.000000 0.000000 11.746704
					CHANNELS 6 Xposition Yposition Zposition Zrotation Yrotation Xrotation
					JOINT Neck
					{
						OFFSET 0.000000 0.000000 17.658264
						CHANNELS 6 Xposition Yposition Zposition Zrotation Yrotation Xrotation
						JOINT Neck1
						{
							OFFSET 0.000000 0.000000 5.101517
							CHANNELS 6 Xposition Yposition Zposition Zrotation Yrotation Xrotation
							JOINT Head
							{
								OFFSET 0.000000 0.000000 5.101517
								CHANNELS 6 Xposition Yposition Zposition Zrotation Yrotation Xrotation
								JOINT HeadEnd
								{
									OFFSET 0.000000 0.000000 11.655090
									CHANNELS 6 Xposition Yposition Zposition Zrotation Yrotation Xrotation
									End Site
									{
										OFFSET 0.000000 0.000000 0.100006
									}
								}
							}
						}
					}
					JOINT RightShoulder
					{
						OFFSET -2.625397 0.000000 11.175217
						CHANNELS 6 Xposition Yposition Zposition Zrotation Yrotation Xrotation
						JOINT RightArm
						{
							OFFSET 0.000000 0.000000 10.434723
							CHANNELS 6 Xposition Yposition Zposition Zrotation Yrotation Xrotation
							JOINT RightForeArm
							{
								OFFSET 0.000000 0.000000 29.628418
								CHANNELS 6 Xposition Yposition Zposition Zrotation Yrotation Xrotation
								JOINT RightHand
								{
									OFFSET 0.000000 0.000000 22.857605
									CHANNELS 6 Xposition Yposition Zposition Zrotation Yrotation Xrotation
									JOINT RightHandThumb1
									{
										OFFSET -2.867310 -2.944275 3.959564
										CHANNELS 6 Xposition Yposition Zposition Zrotation Yrotation Xrotation
										JOINT RightHandThumb2
										{
											OFFSET 0.000000 0.000000 3.350403
											CHANNELS 6 Xposition Yposition Zposition Zrotation Yrotation Xrotation
											JOINT RightHandThumb3
											{
												OFFSET 0.000000 0.000000 3.756516
												CHANNELS 6 Xposition Yposition Zposition Zrotation Yrotation Xrotation
												JOINT RightHandThumb4
												{
													OFFSET 0.000000 0.000000 3.147339
													CHANNELS 6 Xposition Yposition Zposition Zrotation Yrotation Xrotation
													End Site
													{
														OFFSET 0.000000 0.000000 0.100006
													}
												}
											}
										}
									}
									JOINT RightHandIndex1
									{
										OFFSET -0.086761 -2.345276 10.030899
										CHANNELS 6 Xposition Yposition Zposition Zrotation Yrotation Xrotation
										JOINT RightHandIndex2
										{
											OFFSET 0.000000 0.000000 4.061096
											CHANNELS 6 Xposition Yposition Zposition Zrotation Yrotation Xrotation
											JOINT RightHandIndex3
											{
												OFFSET 0.000000 0.000000 3.248871
												CHANNELS 6 Xposition Yposition Zposition Zrotation Yrotation Xrotation
												JOINT RightHandIndex4
												{
													OFFSET 0.000000 0.000000 2.639709
													CHANNELS 6 Xposition Yposition Zposition Zrotation Yrotation Xrotation
													End Site
													{
														OFFSET 0.000000 0.000000 0.100006
													}
												}
											}
										}
									}
									JOINT RightHandMiddle1
									{
										OFFSET 0.104095 -0.006775 9.502945
										CHANNELS 6 Xposition Yposition Zposition Zrotation Yrotation Xrotation
										JOINT RightHandMiddle2
										{
											OFFSET 0.000000 0.000000 4.568726
											CHANNELS 6 Xposition Yposition Zposition Zrotation Yrotation Xrotation
											JOINT RightHandMiddle3
											{
												OFFSET 0.000000 0.000000 3.654984
												CHANNELS 6 Xposition Yposition Zposition Zrotation Yrotation Xrotation
												JOINT RightHandMiddle4
												{
													OFFSET 0.000000 0.000000 2.741241
													CHANNELS 6 Xposition Yposition Zposition Zrotation Yrotation Xrotation
													End Site
													{
														OFFSET 0.000000 0.000000 0.100006
													}
												}
											}
										}
									}
									JOINT RightHandRing1
									{
										OFFSET 0.086761 2.267456 8.921707
										CHANNELS 6 Xposition Yposition Zposition Zrotation Yrotation Xrotation
										JOINT RightHandRing2
										{
											OFFSET 0.000000 0.000000 4.061096
											CHANNELS 6 Xposition Yposition Zposition Zrotation Yrotation Xrotation
											JOINT RightHandRing3
											{
												OFFSET 0.000000 0.000000 3.654984
												CHANNELS 6 Xposition Yposition Zposition Zrotation Yrotation Xrotation
												JOINT RightHandRing4
												{
													OFFSET 0.000000 0.000000 2.741241
													CHANNELS 6 Xposition Yposition Zposition Zrotation Yrotation Xrotation
													End Site
													{
														OFFSET 0.000000 0.000000 0.100006
													}
												}
											}
										}
									}
									JOINT RightHandPinky1
									{
										OFFSET -0.173492 4.467224 7.976990
										CHANNELS 6 Xposition Yposition Zposition Zrotation Yrotation Xrotation
										JOINT RightHandPinky2
										{
											OFFSET 0.000000 0.000000 3.350403
											CHANNELS 6 Xposition Yposition Zposition Zrotation Yrotation Xrotation
											JOINT RightHandPinky3
											{
												OFFSET 0.000000 0.000000 2.842758
												CHANNELS 6 Xposition Yposition Zposition Zrotation Yrotation Xrotation
												JOINT RightHandPinky4
												{
													OFFSET 0.000000 0.000000 2.639709
													CHANNELS 6 Xposition Yposition Zposition Zrotation Yrotation Xrotation
													End Site
													{
														OFFSET 0.000000 0.000000 0.100006
													}
												}
											}
										}
									}
									JOINT RightForeArmEnd
									{
										OFFSET 0.000000 0.000000 0.000000
										CHANNELS 6 Xposition Yposition Zposition Zrotation Yrotation Xrotation
										End Site
										{
											OFFSET 0.000000 0.000000 0.100006
										}
									}
								}
								JOINT RightArmEnd
								{
									OFFSET 0.000000 0.000000 0.000000
									CHANNELS 6 Xposition Yposition Zposition Zrotation Yrotation Xrotation
									End Site
									{
										OFFSET 0.000000 0.000000 0.100006
									}
								}
							}
						}
					}
					JOINT LeftShoulder
					{
						OFFSET 2.625397 0.000000 11.175217
						CHANNELS 6 Xposition Yposition Zposition Zrotation Yrotation Xrotation
						JOINT LeftArm
						{
							OFFSET 0.000000 0.000000 10.813629
							CHANNELS 6 Xposition Yposition Zposition Zrotation Yrotation Xrotation
							JOINT LeftForeArm
							{
								OFFSET 0.000000 0.000000 28.724777
								CHANNELS 6 Xposition Yposition Zposition Zrotation Yrotation Xrotation
								JOINT LeftHand
								{
									OFFSET 0.644379 0.328857 25.716171
									CHANNELS 6 Xposition Yposition Zposition Zrotation Yrotation Xrotation
									JOINT LeftHandThumb1
									{
										OFFSET 2.867310 -2.944275 3.959564
										CHANNELS 6 Xposition Yposition Zposition Zrotation Yrotation Xrotation
										JOINT LeftHandThumb2
										{
											OFFSET 0.000000 0.000000 3.350403
											CHANNELS 6 Xposition Yposition Zposition Zrotation Yrotation Xrotation
											JOINT LeftHandThumb3
											{
												OFFSET 0.000000 0.000000 3.756516
												CHANNELS 6 Xposition Yposition Zposition Zrotation Yrotation Xrotation
												JOINT LeftHandThumb4
												{
													OFFSET 0.000000 0.000000 3.100006
													CHANNELS 6 Xposition Yposition Zposition Zrotation Yrotation Xrotation
													End Site
													{
														OFFSET 0.000000 0.000000 0.100006
													}
												}
											}
										}
									}
									JOINT LeftHandIndex1
									{
										OFFSET 0.086761 -2.345276 10.030899
										CHANNELS 6 Xposition Yposition Zposition Zrotation Yrotation Xrotation
										JOINT LeftHandIndex2
										{
											OFFSET 0.000000 0.000000 4.061096
											CHANNELS 6 Xposition Yposition Zposition Zrotation Yrotation Xrotation
											JOINT LeftHandIndex3
											{
												OFFSET 0.000000 0.000000 3.248871
												CHANNELS 6 Xposition Yposition Zposition Zrotation Yrotation Xrotation
												JOINT LeftHandIndex4
												{
													OFFSET 0.000000 0.000000 2.639709
													CHANNELS 6 Xposition Yposition Zposition Zrotation Yrotation Xrotation
													End Site
													{
														OFFSET 0.000000 0.000000 0.100006
													}
												}
											}
										}
									}
									JOINT LeftHandMiddle1
									{
										OFFSET -0.104095 -0.006775 9.502945
										CHANNELS 6 Xposition Yposition Zposition Zrotation Yrotation Xrotation
										JOINT LeftHandMiddle2
										{
											OFFSET 0.000000 0.000000 4.568726
											CHANNELS 6 Xposition Yposition Zposition Zrotation Yrotation Xrotation
											JOINT LeftHandMiddle3
											{
												OFFSET 0.000000 0.000000 3.654984
												CHANNELS 6 Xposition Yposition Zposition Zrotation Yrotation Xrotation
												JOINT LeftHandMiddle4
												{
													OFFSET 0.000000 0.000000 2.741241
													CHANNELS 6 Xposition Yposition Zposition Zrotation Yrotation Xrotation
													End Site
													{
														OFFSET 0.000000 0.000000 0.100006
													}
												}
											}
										}
									}
									JOINT LeftHandRing1
									{
										OFFSET -0.086761 2.267456 8.921707
										CHANNELS 6 Xposition Yposition Zposition Zrotation Yrotation Xrotation
										JOINT LeftHandRing2
										{
											OFFSET 0.000000 0.000000 4.061096
											CHANNELS 6 Xposition Yposition Zposition Zrotation Yrotation Xrotation
											JOINT LeftHandRing3
											{
												OFFSET 0.000000 0.000000 3.654984
												CHANNELS 6 Xposition Yposition Zposition Zrotation Yrotation Xrotation
												JOINT LeftHandRing4
												{
													OFFSET 0.000000 0.000000 2.741241
													CHANNELS 6 Xposition Yposition Zposition Zrotation Yrotation Xrotation
													End Site
													{
														OFFSET 0.000000 0.000000 0.100006
													}
												}
											}
										}
									}
									JOINT LeftHandPinky1
									{
										OFFSET 0.173492 4.467224 7.976990
										CHANNELS 6 Xposition Yposition Zposition Zrotation Yrotation Xrotation
										JOINT LeftHandPinky2
										{
											OFFSET 0.000000 0.000000 3.350403
											CHANNELS 6 Xposition Yposition Zposition Zrotation Yrotation Xrotation
											JOINT LeftHandPinky3
											{
												OFFSET 0.000000 0.000000 2.842758
												CHANNELS 6 Xposition Yposition Zposition Zrotation Yrotation Xrotation
												JOINT LeftHandPinky4
												{
													OFFSET 0.000000 0.000000 2.639709
													CHANNELS 6 Xposition Yposition Zposition Zrotation Yrotation Xrotation
													End Site
													{
														OFFSET 0.000000 0.000000 0.100006
													}
												}
											}
										}
									}
									JOINT LeftForeArmEnd
									{
										OFFSET 0.000000 0.000000 0.000000
										CHANNELS 6 Xposition Yposition Zposition Zrotation Yrotation Xrotation
										End Site
										{
											OFFSET 0.000000 0.000000 0.100006
										}
									}
								}
								JOINT LeftArmEnd
								{
									OFFSET 0.000000 0.000000 0.000000
									CHANNELS 6 Xposition Yposition Zposition Zrotation Yrotation Xrotation
									End Site
									{
										OFFSET 0.000000 0.000000 0.100006
									}
								}
							}
						}
					}
				}
			}
		}
	}
	JOINT RightUpLeg
	{
		OFFSET -11.289948 0.000000 0.000000
		CHANNELS 6 Xposition Yposition Zposition Zrotation Yrotation Xrotation
		JOINT RightLeg
		{
			OFFSET 0.000000 0.000000 -38.200329
			CHANNELS 6 Xposition Yposition Zposition Zrotation Yrotation Xrotation
			JOINT RightFoot
			{
				OFFSET 0.000000 0.000000 -39.900856
				CHANNELS 6 Xposition Yposition Zposition Zrotation Yrotation Xrotation
				JOINT RightToeBase
				{
					OFFSET 0.000000 -15.261658 0.000001
					CHANNELS 6 Xposition Yposition Zposition Zrotation Yrotation Xrotation
					JOINT RightToeBaseEnd
					{
						OFFSET 0.000000 -7.370728 0.000001
						CHANNELS 6 Xposition Yposition Zposition Zrotation Yrotation Xrotation
						End Site
						{
							OFFSET 0.000000 0.000000 0.100000
						}
					}
				}
				JOINT RightLegEnd
				{
					OFFSET 0.000000 0.000000 0.000000
					CHANNELS 6 Xposition Yposition Zposition Zrotation Yrotation Xrotation
					End Site
					{
						OFFSET 0.000000 0.000000 0.100000
					}
				}
			}
			JOINT RightUpLegEnd
			{
				OFFSET 0.000000 0.000000 0.000000
				CHANNELS 6 Xposition Yposition Zposition Zrotation Yrotation Xrotation
				End Site
				{
					OFFSET 0.000000 0.000000 0.099998
				}
			}
		}
	}
	JOINT LeftUpLeg
	{
		OFFSET 11.315674 0.000000 0.000000
		CHANNELS 6 Xposition Yposition Zposition Zrotation Yrotation Xrotation
		JOINT LeftLeg
		{
			OFFSET 0.000000 0.000000 -38.200329
			CHANNELS 6 Xposition Yposition Zposition Zrotation Yrotation Xrotation
			JOINT LeftFoot
			{
				OFFSET 0.000000 0.000000 -39.900856
				CHANNELS 6 Xposition Yposition Zposition Zrotation Yrotation Xrotation
				JOINT LeftToeBase
				{
					OFFSET 0.000000 -15.261658 0.000001
					CHANNELS 6 Xposition Yposition Zposition Zrotation Yrotation Xrotation
					JOINT LeftToeBaseEnd
					{
						OFFSET 0.000000 -7.539978 0.000001
						CHANNELS 6 Xposition Yposition Zposition Zrotation Yrotation Xrotation
						End Site
						{
							OFFSET 0.000000 0.000000 0.100000
						}
					}
				}
				JOINT LeftLegEnd
				{
					OFFSET 0.000000 0.000000 0.000000
					CHANNELS 6 Xposition Yposition Zposition Zrotation Yrotation Xrotation
					End Site
					{
						OFFSET 0.000000 0.000000 0.100000
					}
				}
			}
			JOINT LeftUpLegEnd
			{
				OFFSET 0.000000 0.000000 0.000000
				CHANNELS 6 Xposition Yposition Zposition Zrotation Yrotation Xrotation
				End Site
				{
					OFFSET 0.000000 0.000000 0.099998
				}
			}
		}
	}
}
MOTION
Frames: 2
Frame Time: 0.016667
-1.412506 -19.517273 86.665428 -18.601079 4.366500 -22.558496 0.000004 2.080065 8.814240 -2.221540 -6.097780 10.151480 -0.000013 -0.000020 8.844140 -0.211166 -1.682644 1.449778 0.000007 0.000019 11.682274 -2.254575 0.293804 12.938421 0.000003 0.000013 11.746697 -0.528594 1.947891 6.940894 0.000003 -0.000029 17.658241 2.346586 8.803455 10.870257 0.000010 0.000021 5.101503 0.459218 2.243384 -0.984008 0.000007 -0.000013 5.101515 -2.717997 3.119360 -23.450147 0.000004 -0.000001 11.655079 0.000000 0.000000 -0.000000 -2.625393 -0.000010 11.175230 10.308278 -83.462152 -0.226433 0.000011 0.000017 10.434731 21.537586 -14.001335 6.925836 -0.000034 0.000000 29.628418 17.525842 -2.312895 122.642166 0.000012 0.000043 22.857559 10.862744 -61.708533 -11.178847 -2.867355 -2.944290 3.959518 31.666833 -16.919915 52.040601 -0.000038 0.000015 3.350407 -11.909956 8.109313 -21.600897 -0.000025 0.000000 3.756508 -7.938970 6.118695 -14.796172 -0.000039 0.000014 3.147327 -0.000002 0.000001 -0.000003 -0.086742 -2.345281 10.030891 -10.745079 -11.269744 3.296108 0.000008 0.000027 4.061092 0.407393 -8.188000 1.160151 -0.000013 0.000014 3.248870 -0.094549 -8.187881 1.160201 -0.000007 -0.000009 2.639733 0.000002 0.000001 -0.000001 0.104118 -0.006779 9.502957 -5.509946 -10.882800 0.610156 0.000011 -0.000015 4.568722 0.457126 -7.738156 0.415469 -0.000012 -0.000025 3.654982 -0.054009 -7.738124 0.414290 -0.000005 0.000059 2.741238 0.000000 0.000003 0.000000 0.086738 2.267463 8.921728 2.357089 -12.303394 -3.336916 -0.000054 -0.000037 4.061117 -0.939314 -8.889469 -0.550767 0.000026 -0.000044 3.655017 0.099641 -8.889395 -0.556833 -0.000040 0.000003 2.741234 -0.000001 -0.000001 0.000000 -0.173553 4.467251 7.976982 10.872730 -11.958451 -7.205811 0.000010 -0.000079 3.350418 -1.859546 -9.258380 -1.814697 0.000031 -0.000071 2.842772 0.140099 -9.258101 -1.811173 0.000015 -0.000062 2.639702 0.000000 0.000001 -0.000000 0.000012 0.000006 -0.000025 -0.000001 0.000002 0.000001 0.000012 -0.000008 -0.000011 0.000000 0.000001 0.000002 2.625373 0.000018 11.175229 -10.989122 87.462198 -0.120489 -0.000010 -0.000015 10.813622 -23.832562 54.610846 -25.973594 0.000031 0.000000 28.724802 -30.194695 2.111094 54.831915 0.644344 0.328819 25.716141 24.241748 29.216759 -28.561011 2.867260 -2.944351 3.959557 -31.623889 17.268252 51.506569 -0.000004 -0.000038 3.350449 12.679387 -8.429115 -22.889752 -0.000032 -0.000034 3.756516 8.440179 -6.403195 -15.670515 -0.000041 -0.000005 3.099995 0.000000 -0.000001 -0.000001 0.086750 -2.345293 10.030952 -6.044933 16.059061 5.774670 -0.000065 0.000010 4.061138 0.356344 10.580903 -1.505149 -0.000018 -0.000026 3.248923 -0.136703 10.580907 -1.503881 -0.000017 -0.000005 2.639732 0.000001 -0.000000 0.000001 -0.104162 -0.006754 9.502970 -1.279511 13.050701 2.780656 -0.000067 -0.000029 4.568743 0.469474 9.128030 -0.481222 -0.000070 -0.000011 3.655024 -0.032229 9.128060 -0.481483 -0.000017 -0.000001 2.741267 0.000000 -0.000000 0.000000 -0.086826 2.267363 8.921712 6.470282 10.722290 -1.023687 -0.000028 0.000005 4.061100 -0.969537 7.527765 0.463090 -0.000033 -0.000019 3.654999 0.028899 7.527750 0.462889 -0.000027 0.000006 2.741262 -0.000001 0.000001 -0.000000 0.173510 4.467253 7.976994 14.240518 7.879221 -4.333128 -0.000036 -0.000058 3.350438 -1.962777 4.677312 0.911272 -0.000008 -0.000078 2.842773 0.037170 4.677528 0.911045 -0.000044 -0.000004 2.639702 0.000001 -0.000001 -0.000001 -0.000026 0.000003 0.000004 -0.000001 -0.000001 0.000000 -0.000024 0.000014 0.000003 -0.000002 0.000001 -0.000003 -11.289938 0.000038 0.000006 -14.778595 3.151081 21.254321 0.000013 0.000065 -38.200310 -1.234519 0.323420 14.868055 -0.000007 0.000045 -39.900848 -16.501331 2.005094 10.587967 -0.000011 -15.261616 0.000003 1.288894 1.696187 -13.637345 -0.000011 -7.370759 0.000000 -0.000005 0.000001 0.000001 -0.000010 0.000012 0.000001 -0.000002 -0.000003 0.000001 -0.000010 0.000073 0.000003 -0.000002 0.000000 0.000001 11.315681 -0.000027 -0.000008 -5.640346 -14.080809 26.029448 0.000014 0.000018 -38.200340 1.324716 -0.378160 15.929540 -0.000007 -0.000048 -39.900848 8.626538 9.396110 9.473966 -0.000022 -15.261726 0.000002 -1.546355 -1.374215 -15.736566 -0.000031 -7.539907 0.000002 -0.000002 0.000000 -0.000001 -0.000029 -0.000063 0.000003 0.000000 -0.000000 0.000002 0.000013 0.000006 0.000005 -0.000001 0.000000 -0.000001 
-1.691345 -19.465393 86.627945 -18.644192 4.465787 -22.498978 -0.000009 2.080087 8.814259 -2.210342 -6.156812 10.056465 0.000014 -0.000009 8.844149 -0.225648 -1.694160 1.412020 0.000004 -0.000024 11.682274 -2.275221 0.209630 12.869401 -0.000011 0.000010 11.746697 -0.518761 1.911221 7.049226 -0.000007 0.000009 17.658253 2.345745 8.811030 11.714589 0.000004 -0.000011 5.101511 0.457535 2.215422 -0.621958 -0.000015 -0.000008 5.101482 -2.701441 2.988130 -23.902392 -0.000003 0.000001 11.655050 -0.000000 0.000000 -0.000000 -2.625389 0.000017 11.175221 10.239352 -83.643378 -0.221816 -0.000029 0.000010 10.434708 22.448848 -14.407183 6.372460 -0.000015 0.000015 29.628407 17.752579 -2.328471 122.576023 0.000011 0.000017 22.857605 10.902235 -61.872805 -11.013283 -2.867359 -2.944305 3.959518 31.666669 -16.919943 52.041585 -0.000069 0.000031 3.350407 -11.910187 8.108942 -21.602655 -0.000069 0.000000 3.756496 -7.938601 6.119021 -14.795435 -0.000059 0.000003 3.147327 0.000001 -0.000000 -0.000002 -0.086773 -2.345278 10.030907 -10.729373 -11.197578 3.278352 0.000014 -0.000002 4.061099 0.407146 -8.135230 1.158590 -0.000006 0.000030 3.248870 -0.094562 -8.136916 1.156710 0.000003 -0.000009 2.639697 0.000002 0.000000 -0.000000 0.104088 -0.006808 9.502970 -5.497261 -10.817996 0.601877 0.000011 0.000021 4.568728 0.457324 -7.691879 0.415825 -0.000003 -0.000068 3.654984 -0.053957 -7.691845 0.413566 -0.000041 -0.000009 2.741222 0.000001 0.000006 -0.000004 0.086726 2.267432 8.921726 2.357496 -12.264008 -3.296114 -0.000046 -0.000044 4.061102 -0.938001 -8.859358 -0.550577 -0.000011 -0.000083 3.654996 0.099488 -8.859318 -0.556113 -0.000020 -0.000009 2.741235 0.000002 -0.000001 -0.000000 -0.173523 4.467228 7.976990 10.868394 -11.972228 -7.077477 -0.000010 -0.000031 3.350437 -1.860008 -9.247708 -1.819106 -0.000033 -0.000075 2.842770 0.138675 -9.247449 -1.812878 0.000014 -0.000064 2.639694 0.000000 0.000000 -0.000000 -0.000016 0.000002 -0.000010 -0.000000 0.000002 -0.000003 0.000010 0.000004 -0.000001 -0.000000 -0.000002 -0.000001 2.625374 -0.000017 11.175195 -10.778741 87.512564 -0.120856 -0.000008 0.000019 10.813652 -23.404184 54.940242 -25.791332 0.000061 -0.000015 28.724751 -29.694579 2.092814 52.824270 0.644367 0.328827 25.716110 24.622395 28.631542 -28.747389 2.867268 -2.944321 3.959488 -31.623885 17.268258 51.506586 0.000008 -0.000069 3.350430 12.679395 -8.429121 -22.889747 -0.000097 -0.000008 3.756500 8.440189 -6.403201 -15.670524 -0.000028 -0.000008 3.100012 0.000000 0.000002 -0.000004 0.086693 -2.345257 10.030907 -6.053022 16.041766 7.061875 -0.000014 0.000026 4.061125 0.356650 10.436611 -1.484783 -0.000030 -0.000001 3.248906 -0.132747 10.436593 -1.482722 -0.000030 -0.000008 2.639769 0.000001 -0.000000 -0.000001 -0.104156 -0.006752 9.502964 -1.373025 12.535997 3.574536 -0.000021 -0.000022 4.568762 0.469192 8.728810 -0.460370 -0.000039 -0.000001 3.655002 -0.032261 8.728795 -0.460588 -0.000045 -0.000019 2.741256 0.000003 0.000000 -0.000001 -0.086788 2.267466 8.921692 6.182712 9.229149 -0.812235 -0.000033 0.000013 4.061146 -0.977443 6.485480 0.398227 -0.000043 0.000017 3.655032 0.022582 6.482414 0.398312 -0.000041 0.000005 2.741267 -0.000001 0.000002 -0.000000 0.173456 4.467222 7.976967 13.735604 5.458108 -4.861889 -0.000011 -0.000063 3.350430 -1.985221 2.955305 0.573894 -0.000038 -0.000080 2.842796 0.014824 2.948199 0.574142 -0.000044 -0.000005 2.639723 0.000000 0.000002 -0.000000 -0.000006 0.000019 0.000002 -0.000002 0.000001 -0.000001 0.000006 0.000001 -0.000000 0.000000 -0.000002 0.000005 -11.289944 0.000008 0.000021 -14.822045 2.830253 21.232323 -0.000009 0.000040 -38.200298 -1.229242 0.325196 14.999413 0.000032 0.000061 -39.900845 -16.577578 2.189595 10.369806 0.000029 -15.261653 0.000007 1.277946 1.675235 -13.548695 0.000000 -7.370700 0.000001 -0.000004 -0.000000 0.000001 0.000041 0.000007 0.000001 -0.000001 -0.000001 0.000001 -0.000017 0.000073 -0.000004 -0.000002 -0.000000 -0.000000 11.315681 -0.000042 -0.000023 -5.742352 -14.352727 25.957825 0.000031 0.000000 -38.200325 1.332264 -0.384238 16.083304 -0.000016 -0.000067 -39.900848 8.703451 9.577605 9.467294 -0.000041 -15.261619 -0.000009 -1.536422 -1.404848 -15.709582 -0.000027 -7.539909 -0.000001 -0.000001 0.000000 0.000000 -0.000030 -0.000003 0.000001 0.000001 -0.000000 0.000001 0.000014 0.000046 -0.000001 0.000003 0.000001 0.000001 
